<svg class="h-8 w-auto max-w-full max-h-full fill-skin-header lg:h-10 transition-all duration-300 ease-226135" height="229" viewBox="-.673 -.673 106.187 23.769" width="1024" xmlns="http://www.w3.org/2000/svg"><defs></defs><path d="M5.64 9.227l8.723 1.837 8.731-1.837-2.765 4.416-5.966 1.531-5.968-1.531L5.64 9.227m8.723 13.197l3.092-4.949-3.092.84-3.083-.84 3.083 4.949m0-19.954L0 0l3.002 4.832 11.361 2.48 11.349-2.48L28.735 0 14.363 2.47M77.885 11.345c1.739 0 2.965-.967 2.965-3.092V4.32h-1.759v3.933c0 .939-.397 1.512-1.187 1.512-.8 0-1.195-.582-1.195-1.512V4.32h-1.77v3.933c0 2.135 1.227 3.092 2.946 3.092m-5.867-.108h1.768V4.32h-1.768v6.917zm-2.705 0h1.452V4.32h-1.681v3.774L66.416 4.32h-1.571v6.917h1.68V7.274l2.788 3.963m-10.53 0h5.228V9.715h-3.498V8.362h2.18V6.859h-2.18V5.84h3.257V4.32h-4.987v6.917m-3.75.108c1.738 0 2.817-.73 2.817-2.222 0-1.364-.919-1.849-2.451-2.204-.958-.227-1.216-.356-1.216-.672 0-.267.167-.484.801-.484.681 0 1.265.237 1.817.642l.94-1.295c-.701-.573-1.531-.9-2.677-.9-1.562 0-2.639.842-2.639 2.135 0 1.374.829 1.809 2.371 2.164 1.048.248 1.294.415 1.294.743 0 .386-.278.542-.998.542-.651 0-1.462-.306-1.957-.701l-.939 1.275c.653.574 1.711.977 2.836.977m-8.41-.108h5.228V9.715h-3.499V8.362h2.179V6.859h-2.179V5.84h3.258V4.32h-4.987v6.917M42.99 5.812h-1.374v1.601h1.355c.633 0 .909-.286.909-.82 0-.495-.276-.781-.89-.781zm.771 5.425l-1.166-2.382h-.979v2.382h-1.719V4.32h3.143c1.511 0 2.589.653 2.589 2.233 0 1.039-.474 1.68-1.275 2.026l1.365 2.658h-1.958m-7.953-5.375v1.067h2.439V8.46h-2.439v2.777h-1.739V4.32h5.155v1.542h-3.416m48.503 5.483c1.739 0 2.816-.73 2.816-2.222 0-1.364-.918-1.849-2.452-2.204-.957-.227-1.215-.356-1.215-.672 0-.267.17-.484.801-.484.681 0 1.265.237 1.819.642l.939-1.295c-.702-.573-1.533-.9-2.679-.9-1.56 0-2.638.842-2.638 2.135 0 1.374.83 1.809 2.37 2.164 1.049.248 1.297.415 1.297.743 0 .386-.276.542-.999.542-.652 0-1.463-.306-1.956-.701l-.939 1.275c.651.574 1.71.977 2.836.977M42.194 21.597h5.227v-1.52h-3.498v-1.355h2.178V17.22h-2.178v-1.017h3.257V14.68h-4.986v6.917m53.752-5.414h-1.37v1.599h1.352c.63 0 .907-.287.907-.82 0-.492-.277-.779-.889-.779zm.77 5.414l-1.163-2.375h-.977v2.375h-1.717v-6.903h3.137c1.511 0 2.583.651 2.583 2.229 0 1.037-.473 1.676-1.271 2.021l1.362 2.653h-1.954m-8.651-2.772h1.374l-.682-2.226-.692 2.226zm2.231 2.772l-.404-1.32h-2.279l-.406 1.32h-1.852l2.545-6.903h1.736l2.545 6.903h-1.885M83.724 17.1l1.587-.651c-.465-1.162-1.174-1.865-2.734-1.865-1.846 0-3.126 1.381-3.126 3.561 0 2.092 1.134 3.562 3.097 3.562 1.511 0 2.298-.78 2.772-1.708l-1.469-.807c-.376.64-.661.947-1.274.947-.896 0-1.321-.877-1.321-1.994 0-1.152.425-1.992 1.303-1.992.631 0 .916.366 1.165.947m-12.44 4.497h4.942V20.03h-3.187v-5.336h-1.755v6.903m-4.791-2.772h1.37l-.68-2.226-.69 2.226zm2.227 2.772l-.404-1.32h-2.279l-.403 1.32h-1.855l2.545-6.903h1.736l2.545 6.903H68.72M62.145 17.1l1.59-.651c-.464-1.162-1.174-1.865-2.733-1.865-1.844 0-3.127 1.381-3.127 3.561 0 2.092 1.135 3.562 3.099 3.562 1.509 0 2.297-.78 2.771-1.708l-1.469-.807c-.376.64-.662.947-1.274.947-.897 0-1.323-.877-1.323-1.994 0-1.152.426-1.992 1.304-1.992.631 0 .917.366 1.162.947m-6.982 4.497h1.765v-6.903h-1.765v6.903zm-4.513-5.364h-.552v3.825h.502c1.272 0 1.805-.58 1.805-1.921 0-1.313-.474-1.904-1.755-1.904zm-.128 5.364h-2.181v-6.903h2.339c2.1 0 3.512.859 3.512 3.421 0 2.547-1.442 3.482-3.67 3.482m-11.333 0v-3.508l-1.736 3.716-1.738-3.716v3.508h-1.646v-6.903h1.617l1.787 3.876 1.755-3.876h1.617v6.903h-1.656m60.426 0h5.227v-1.52h-3.497v-1.355h2.179V17.22h-2.179v-1.017h3.257V14.68h-4.987v6.917"></path></svg>
