<svg xmlns:xlink="http://www.w3.org/1999/xlink" viewBox="0 0 180 180" xmlns="http://www.w3.org/2000/svg" width="180"  height="180" ><g fill="none" fill-rule="evenodd"><path fill="#F8B6B9" d="M127.135 2c22.747.215 39.723 20.107 46.7 40.151 10.128 27.971 8.154 61.028-7.926 86.363-12.129 15.313-38.788 14.664-49.545-1.932-7.42-10.276-7.57-26.338 2.315-35.118 3.983-4.839 12.946-6.74 10.75-14.537l-.04-14.001C112.021 64.54 95.533 48.591 97.18 31.068 97.864 15.673 111.6 1.981 127.135 2ZM52.869 2c19.411-.227 34.922 21.19 28.739 39.599C77.848 54.711 64.17 64 50.614 62.926c1.557 7.115-3.485 18.043 2.997 22.298 10.725 6.24 18.677 19.197 14.513 31.738-4.51 18.573-28.326 29.082-44.809 18.882C8.165 126.7 3.656 107.886.962 91.602-2.833 62.915 4.466 30.49 27.435 11.29 34.644 5.632 43.62 1.939 52.869 2Z" class="vividRed-400"></path> <path fill="#FBDADC" d="M135.157 67.05c1.145 6.757 1.624 15.43-7.568 12.412-9.114-2.608-13.021 4.818-16.762 11.723-3.261 3.924-4.856 8.373-4.142 13.42v73.565c-6.17 2.329-15.71 1.866-12.513-7.279.074-25.622-.171-51.245.125-76.867 7.185-8.198 10.335-22.924 20.118-26.933 6.91-.212 13.828.113 20.742-.041zm-66.927 0c6.258 8.311 11.277 17.516 16.867 26.273 1.518 4.998.34 10.555.712 15.79v69.057c-6.131 2.302-15.693 1.904-12.52-7.223-.073-24.45.167-48.9-.123-73.349L62.004 79.875c-5.704-2.584-18.403 4.041-17.549-5.039-3.179-13.023 13.17-6.073 20.85-7.787h1.463z" class="vividRed-500"></path></g></svg>