<svg xmlns:xlink="http://www.w3.org/1999/xlink" viewBox="0 0 180 180" xmlns="http://www.w3.org/2000/svg" width="180"  height="180" ><g fill="none" fill-rule="evenodd"><path fill="#CC3E44" d="M42.87 43c3.52 4.33 6.712 7.4 11.034 2.787 8.849 2.856-4.884 8.188 3.367 11.545 5.883 3.276-5.732 7.776 2.399 11.048-2.714 7.633-7.291 1.44-10.438-1.858-2.25-2.214-4.5-6.036-6.75-1.714L19.286 88 30 98.71c-2.36 4.302-6.216 4.321-8.505.327-3.972 6.494-7.07.543-11.018-1.875-3.757 7.12-11.648-1.587-4.386-4.977-4.241-3.53-7.203-7.158-2.422-11.017-7.623-5.136 2.93-10.622 5.66-3.13 2.25 1.183 4.5 6.863 6.75 4.593L40.71 58 30 47.29c2.733-5.367 6.154-2.82 9.101-.532 1.532-.962 2.26-2.766 3.769-3.758Zm123.93 8c11.307-.697 17.406 14.61 9.953 22.618-5.497 8.3-13.595 14.27-20.753 21.018-8.967-8.912-21.578-16.478-24.106-29.784-.776-11.86 14.52-18.235 22.957-10.281 4.603 1.62 6.914-4.897 11.949-3.571ZM91.812 0c1.099 5.978 4.13 5.254 7.02.836 7.054-4.305 8.601 4.594 1.747 5.939-3.033 0-9.635 3.564-2.517 2.387 12.306-2.53 19.849 12.942 14.264 22.87-2.958 11.42-14.93 13.195-24.853 11.888-9.763-.086-14.93-11.02-15.402-19.56C70.954 14.273 80.931 6.314 90.4 9.74 95.318 6.954 81.713.972 91.812 0Zm-3.568 12.77c-10.377-.752-5.426 15.768-1.459 14.693-2.267-4.556-3.378-11.318 1.459-14.693Z" class="vividRed-500"></path> <path fill="#F8B6B9" d="M59.77 114.602c20.886.333 41.931-.671 62.718.513 6.883 6.338 5.418 17.607 8.645 26.073 2.973 12.933 5.966 25.862 8.867 38.812h-12.372c-3.214-13.945-6.368-27.905-9.62-41.841-6.14-3.024-3.233 7.66-3.824 11.477V180H65.816c-.075-13.946.148-27.894-.109-41.839-7.186-1.62-5.072 12.98-7.905 18.155L52.37 180H40c4.93-20.903 9.166-42.056 14.707-62.762 1.083-1.698 3.11-2.568 5.063-2.636zM89.998 72c14.186-.802 23.64 18.016 14.738 29.054-7.252 10.822-26.028 9.395-31.122-2.811C67.708 86.914 77.013 71.377 89.998 72Z" class="vividRed-400"></path></g></svg>