<svg xmlns:xlink="http://www.w3.org/1999/xlink" viewBox="0 0 180 180" xmlns="http://www.w3.org/2000/svg" width="180"  height="180" ><g fill="none" fill-rule="evenodd"><path fill="#F8B6B9" d="M13.87 29.532c14.884 2.287 34.306-4.653 46.403 3.619 3.125 13.81 6.376 27.628 9.546 41.446-7.66 13.549-11.568-11.367-12.84-18.263-.05-7.215-6.311-16.878-5.14-3.309v75.647c-5.032 14.018-15.99-1.068-12.656-10.174V84.376c-7.683-10.967-9.586 7.154-8.438 13.736-.317 10.823.64 21.802-.486 32.527-9.268 11.993-15.059-7.7-12.166-15.813.003-22.806-.036-45.61.027-68.416-5.794-1.412-4.154 11.53-6.562 16.106-1.903 5.366-1.247 12.102-5.324 16.32-12.788-1.73.33-21.834.019-30.948 2.825-5.349.433-16.79 7.617-18.356Zm89.822 0c14.884 2.287 34.307-4.654 46.404 3.619 3.124 13.81 6.375 27.628 9.545 41.446-7.683 13.52-11.56-11.372-12.84-18.263-.128-7.23-6.025-16.862-5.662-3.33-2.798 12.824 4.486 24.482 7.382 36.616 6.196 9.19-3.045 7.03-9.211 7.13-1.524 3.27-.222 9.366-.655 13.727-.525 7.216 1.205 14.844-1.188 21.726-11.021 8.187-12.466-8.86-11.468-16.755V96.75c-6.436.201-1.698 11.229-3.094 16.023-.488 6.456 1.15 13.304-1.188 19.429-11.02 8.187-12.466-8.86-11.468-16.755V96.75c-6.973.292-15.23 1.482-8.724-8.15 4.47-13.29 9.601-26.686 6.367-40.892-3.992-5.985-4.839 10.826-6.627 15.303-1.901 5.19-1.12 11.81-5.219 15.842-12.778-1.71.336-21.854.029-30.966 2.825-5.348.434-16.791 7.617-18.355zM34.964 0c12.798-.852 17.595 19.18 5.59 24.118C26.217 31.527 14.103 8 29.49 1.222l2.631-.939zm89.822 0c12.798-.852 17.595 19.18 5.59 24.118C116.039 31.527 103.926 8 119.312 1.222l2.631-.939z" class="vividRed-400"></path> <path fill="#CC3E44" d="M65.498 109.687c9.862 2.384 26.14-5.188 31.545 4.621 1.72 8.51 3.854 16.945 5.753 25.424-9.218 11.894-7.124-26.218-12.122-16.15.303 17.38.056 34.802.136 52.199-7.702 10.932-9.578-7.16-8.437-13.736V146.25c-8.492-6.585-4.983 10.605-5.625 16.026-.902 5.809 2.433 13.547-3.163 17.484-10.228-4.885-3.252-20.427-5.273-30.035.01-9.714.017-19.428-.05-29.142-4.45 2.949-3.566 11.787-5.718 17.206-4.67 12.43-8.187-5.06-3.296-10.567 2.277-5.093.834-15.017 6.25-17.535zm86.473-4.922c12.486-.903 27.391-2.46 26.104 14.424 3.898 5.22-.486 15.932-3.174 5.556-.383-6.976-4.855-18.032-4.507-4.437.33 8.141 9.565 18.777-.94 19.848v14.181c-10.496 12.374-4.788-29.115-7.809-9.535 4.006 12.395-8.82 15.062-6.395 2.671.238-5.574 1.087-10.466-5.488-10.129 2.766-5.88 7.754-23.804 2.536-22.694 1.064 4.932-6.946 22.706-6.339 9.05 2.316-5.688 1.273-15.194 6.012-18.935zM79.56 90c18.704.99-.452 29.681-8.095 10.988C69.971 95.899 73.922 89.593 79.56 90Zm82.96 0c15.965 2.025-5.249 22.97-6.278 5.716.352-3.061 3.023-5.979 6.278-5.716Z" class="vividRed-500"></path></g></svg>