<svg xmlns:xlink="http://www.w3.org/1999/xlink" viewBox="0 0 180 180" xmlns="http://www.w3.org/2000/svg" width="180"  height="180" ><g fill="none" fill-rule="evenodd"><path fill="#F8B6B9" d="M35.113 96.455c26.618.445 53.44-.899 79.93.689 6.147 5.007 7.13 13.904 10.86 20.733 3.533 9.117 8.463 17.862 11.094 27.22-4.098 15.138-19.097 2.332-20.823-7.244-3.148-9.52-14.742-19.534-12.068-2.974V180H42.78c-.094-17.97.187-35.943-.14-53.912-11.218-.88-19.1 21.125-33.204 18.508-13.178-11.86 9.694-25.325 14.406-36.937 3.825-3.847 4.514-11.402 11.271-11.204Zm38.33-53.584c18.716-1.056 30.639 24.325 17.51 37.923C80.04 94.47 55.32 89.569 51.425 72.202c-4.74-14.196 7.207-29.757 22.017-29.331Z" class="vividRed-400"></path> <path fill="#CC3E44" d="M128.595 79.061v69.99c-17.76 5.593-35.521 12.46-53.282 17.259l-51.85-17.258v-69.99L76.029 96.56l52.566-17.499zm44.988 11.194c10.74 7.848-10.393 15.085-13.42 22.563-4.214-3.836-15.988-12.945-4.94-13.858 4.605 9.618 9.436-.362 13.731-3.967l4.629-4.738zm0-45.128c10.74 7.848-10.393 15.086-13.42 22.564-4.213-3.836-15.988-12.947-4.94-13.858 4.605 9.618 9.436-.363 13.731-3.968l4.629-4.738zm0-45.127c10.74 7.847-10.394 15.085-13.42 22.563-4.213-3.836-15.988-12.947-4.94-13.858 4.605 9.618 9.436-.362 13.731-3.967L173.583 0Z" class="vividRed-500"></path> <path fill="#F8B6B9" d="M51.37 139.725c-15.94.864-33.391 9.073-48.442 5.4-4.62-17.616 18.924-13.744 29.514-14.968 7.566-.698 34.631-4.527 18.93 9.568" class="vividRed-400"></path></g></svg>