<svg xmlns:xlink="http://www.w3.org/1999/xlink" viewBox="0 0 180 180" xmlns="http://www.w3.org/2000/svg" width="180"  height="180" ><g fill="none" fill-rule="evenodd"><path fill="#F8B6B9" d="M18.385 119.446c19.12.1 38.244-.199 57.363.147 8.454 6.204 6.279 19.738 10.069 29.068C88.23 159.103 90.647 169.544 93 180c-6.033-.36-14.744 2.642-13.183-7.266-4.06-9.53-2.51-27.266-10.196-31.87-1.32 12.842-.316 26.108-.63 39.136H24.009c-1.969-11.93 3.976-32.247-3.04-39.129-3.975 12.737-6.18 26.133-9.465 39.129-8.652 1.556-13.93-.27-9.397-9.19 4.13-16.5 6.857-33.573 12.123-49.654 1.076-1.126 2.646-1.601 4.155-1.71ZM46.5 80c15.136-.922 23.106 21.104 10.743 30.062-11.51 10.128-31.632-1.804-27.161-16.849C31.782 85.8 38.687 79.635 46.5 80Z" class="vividRed-400"></path> <path fill="#CC3E44" d="M143.544 37.5 180 49.221l-17.916 33.903-5.418-13.125c-17.773 9.022-26.23 29.56-26.56 48.661-3.18 2.954-9.78.572-14.363 1.34-11.478 2.411-2.965-14.501-3.41-20.89 3.564-19.082 15.464-36.191 32.284-45.947 7.241-3.415-.084-10.259-1.03-15.553zm-47.088 0-5.205 13.125c7.626 5.94 26.912 13.27 18.56 24.894-2.82 7.565-6.336 20.775-11.639 6.977-3.922-4.584-15.38-18.238-17.364-6.379-1.742 6.468-3.715 8.089-6.103.93L60 49.221 96.456 37.5ZM120 0l24.999 24.999h-15v26.337c-6.41 9.185-17.64 14.2-20.008-1.114.024-8.393.004-16.814.01-25.223h-15L120 0Z" class="vividRed-500"></path></g></svg>